<?xml version="1.0"?>
<svg xmlns="http://www.w3.org/2000/svg" height="512px" viewBox="-116 -19 601 601.33211" width="512px"><path d="m234.457031 214c.03125-10.445312-7.304687-19.46875-17.539062-21.570312-2.253907 2.488281-4.738281 4.742187-7.425781 6.742187-21.582032 15.882813-51.65625 12.976563-69.800782-6.742187-10.238281 2.101562-17.578125 11.125-17.550781 21.570312v37.921875h112.316406zm0 0" fill="#0073e6"/><path d="m178.300781 151.25c14.117188 0 25.554688-11.449219 25.554688-25.558594 0-14.113281-11.4375-25.558594-25.554688-25.558594-14.113281.003907-25.554687 11.445313-25.554687 25.558594.015625 14.105469 11.445312 25.542969 25.554687 25.558594zm0 0" fill="#0073e6"/><path d="m178.300781 391.320312c-1.953125 0-3.863281-.574218-5.492187-1.648437l-41.988282-27.679687-44.867187 2.460937v199.296875l87.148437-53.140625c3.195313-1.945313 7.207032-1.945313 10.398438 0l87.144531 53.140625v-199.296875l-44.867187-2.460937-41.984375 27.675781c-1.628907 1.078125-3.539063 1.652343-5.492188 1.652343zm0 0" fill="#0073e6"/><path d="m178.300781 300.835938c64.144531 0 116.148438-52.003907 116.148438-116.152344 0-64.140625-52.003907-116.144532-116.148438-116.144532s-116.148437 52.003907-116.148437 116.144532c.074218 64.117187 52.035156 116.078125 116.148437 116.152344zm0-220.664063c25.140625 0 45.523438 20.378906 45.523438 45.519531 0 25.144532-20.382813 45.523438-45.523438 45.523438s-45.523437-20.378906-45.523437-45.523438c.03125-25.128906 20.390625-45.492187 45.523437-45.519531zm-76.125 133.828125c-.03125-11.097656 4.351563-21.753906 12.179688-29.621094 7.835937-7.871094 18.472656-12.300781 29.570312-12.324218 3.179688.007812 6.167969 1.523437 8.042969 4.089843 10.753906 14.421875 31.09375 17.539063 45.667969 7 2.671875-1.984375 5.027343-4.363281 6.980469-7.054687 1.886718-2.550782 4.878906-4.050782 8.054687-4.035156 11.097656.019531 21.734375 4.449218 29.570313 12.316406 7.832031 7.867187 12.214843 18.53125 12.179687 29.628906v48.625c0 5.519531-4.269531 9.261719-9.78125 9.261719h-132.675781c-5.515625 0-9.789063-3.742188-9.789063-9.261719zm0 0" fill="#0073e6"/><path d="m-6.386719 184.683594 25.871094 39.242187c1.179687 1.789063 1.753906 3.910157 1.636719 6.042969l-2.589844 47.074219 41.859375 21.144531c1.902344.960938 3.449219 2.507812 4.410156 4.40625l21.144531 41.863281 47.070313-2.589843c.183594-.011719.367187-.015626.546875-.015626 1.949219.003907 3.863281.574219 5.488281 1.652344l39.25 25.871094 39.238281-25.871094c1.789063-1.183594 3.90625-1.753906 6.046876-1.636718l47.070312 2.589843 21.144531-41.863281c.960938-1.898438 2.507813-3.445312 4.410157-4.40625l41.863281-21.144531-2.59375-47.074219c-.117188-2.132812.457031-4.253906 1.632812-6.042969l25.878907-39.242187-25.871094-39.234375c-1.179688-1.789063-1.753906-3.910157-1.636719-6.046875l2.59375-47.070313-41.867187-21.144531c-1.902344-.960938-3.449219-2.507812-4.410157-4.410156l-21.144531-41.863282-47.070312 2.59375c-2.136719.117188-4.257813-.457031-6.046876-1.632812l-39.238281-25.875-39.242187 25.875c-1.785156 1.175781-3.90625 1.75-6.042969 1.632812l-47.070313-2.59375-21.144531 41.863282c-.960937 1.902344-2.507812 3.449218-4.410156 4.410156l-41.859375 21.144531 2.589844 47.070313c.117187 2.136718-.457032 4.257812-1.636719 6.046875zm184.6875-136.113282c75.171875 0 136.117188 60.941407 136.117188 136.113282 0 75.175781-60.945313 136.117187-136.117188 136.117187-75.175781 0-136.113281-60.941406-136.113281-136.117187.085938-75.132813 60.976562-136.023438 136.113281-136.113282zm0 0" fill="#0073e6"/></svg>
